<svg width="200" height="200" viewBox="0 0 200 200" fill="none" xmlns="http://www.w3.org/2000/svg">
  <circle cx="100" cy="100" r="80" fill="#FFE6E6"/>
  <path d="M140 80C140 102.091 122.091 120 100 120C77.9086 120 60 102.091 60 80C60 57.9086 77.9086 40 100 40C122.091 40 140 57.9086 140 80Z" fill="#FF6B6B"/>
  <rect x="95" y="130" width="10" height="40" rx="5" fill="#FF6B6B"/>
  <path d="M85 90C85 92.7614 82.7614 95 80 95C77.2386 95 75 92.7614 75 90C75 87.2386 77.2386 85 80 85C82.7614 85 85 87.2386 85 90Z" fill="white"/>
  <path d="M125 90C125 92.7614 122.761 95 120 95C117.239 95 115 92.7614 115 90C115 87.2386 117.239 85 120 85C122.761 85 125 87.2386 125 90Z" fill="white"/>
  <path d="M100 105C91.7157 105 85 98.2843 85 90" stroke="white" stroke-width="3" stroke-linecap="round"/>
</svg> 